# xmcd
#
# Track frame offsets:
#	150
#	13298
#	27753
#	41281
#	53437
#	64592
#	76594
#	90790
#	103430
#	116952
#	130344
#	145668
#	157518
#	170543
#	180592
#	196940
#	210026
#	224241
#	235487
#	253397
#	266991
#	283112
#
# Disc length: 3950 seconds
#
# Revision: 0
# Processed by: cddbd v1.5.2PL0 Copyright (c) Steve Scherf et al.
# Submitted via: audiograbber 1.83.01
#
DISCID=340f6c16
DTITLE=John Lee Hooker - 16 Original Albums and Bonus Tracks, CD6: John Lee Hooke
DTITLE=r Sings The Blues - The Folk Lore of John Lee Hooker
DYEAR=1961
DGENRE=Blues
TTITLE0=Hug And Squeeze You
TTITLE1=I Love You Baby
TTITLE2=The Syndicate
TTITLE3=Boogie Woogie All Night Long
TTITLE4=Good Rockin´ Mama
TTITLE5=Let Your Daddy Ride
TTITLE6=Turn Over A New Leaf
TTITLE7=Don´t You Remember Me
TTITLE8=Driftin´ From Door To Door
TTITLE9=She Left Me On My Bended Knee
TTITLE10=Tupelo
TTITLE11=I'm Mad Again
TTITLE12=I'm Going Upstairs
TTITLE13=Want AD Blues
TTITLE14=Five Long Years
TTITLE15=I Like To See You Walk
TTITLE16=The Hobo
TTITLE17=Hard-Headed Woman
TTITLE18=Wednesday Evening Blues
TTITLE19=Take Me As I Am
TTITLE20=My First Wife Left Me
TTITLE21=You're Looking Good Tonight
EXTD=Tracks 1-10: John Lee Hooker Sings The Blues\nTracks 11-22: The Folk Lore 
EXTD=of John Lee Hooker\n
EXTT0=
EXTT1=
EXTT2=
EXTT3=
EXTT4=
EXTT5=
EXTT6=
EXTT7=
EXTT8=
EXTT9=
EXTT10=
EXTT11=
EXTT12=
EXTT13=
EXTT14=
EXTT15=
EXTT16=
EXTT17=
EXTT18=
EXTT19=
EXTT20=
EXTT21=
PLAYORDER=
